<?xml version="1.0" standalone="no"?>
<!DOCTYPE svg PUBLIC "-//W3C//DTD SVG 20010904//EN"
 "http://www.w3.org/TR/2001/REC-SVG-20010904/DTD/svg10.dtd">
<svg version="1.0" xmlns="http://www.w3.org/2000/svg"
 width="700.000000pt" height="700.000000pt" viewBox="0 0 700.000000 700.000000"
 preserveAspectRatio="xMidYMid meet">
<metadata>
Created by potrace 1.14, written by Peter Selinger 2001-2017
</metadata>
<g transform="translate(0.000000,700.000000) scale(0.100000,-0.100000)"
fill="#000000" stroke="none">
<path d="M1420 3978 c12 -29 38 -195 79 -498 34 -250 64 -465 66 -477 5 -22 9
-23 134 -23 l129 0 300 488 c166 268 316 502 334 520 l33 33 -95 -3 -95 -3 -3
-32 c-2 -20 -55 -118 -138 -255 -74 -123 -179 -296 -232 -385 -53 -89 -99
-163 -102 -163 -12 0 -101 756 -94 798 l7 42 -171 0 -171 0 19 -42z"/>
<path d="M768 3987 c12 -13 22 -27 22 -31 0 -18 -597 -886 -636 -924 -24 -24
-44 -45 -44 -48 0 -2 34 -4 75 -4 l74 0 20 45 c11 24 52 89 91 145 l72 100
242 0 242 0 18 -104 c10 -58 16 -123 13 -145 l-5 -41 169 0 c93 0 169 4 169 9
0 5 -6 24 -14 42 -7 19 -55 247 -107 507 l-94 472 -164 0 -164 0 21 -23z m92
-382 c22 -113 40 -211 40 -216 0 -5 -81 -9 -190 -9 -104 0 -190 3 -190 6 0 9
293 434 297 430 2 -2 22 -97 43 -211z"/>
<path d="M2750 4001 c0 -5 7 -14 16 -22 8 -7 14 -20 11 -29 -8 -33 -582 -867
-630 -917 l-51 -53 79 0 80 0 21 49 c12 27 52 92 90 145 l68 96 242 0 242 0
19 -107 c11 -60 18 -125 16 -145 l-5 -38 172 0 c160 0 172 1 165 18 -25 59
-42 132 -126 550 l-92 462 -158 0 c-88 0 -159 -4 -159 -9z m105 -403 c21 -114
36 -210 33 -213 -3 -3 -89 -4 -192 -3 l-187 3 148 217 c81 119 151 214 154
210 3 -4 23 -100 44 -214z"/>
<path d="M3670 3970 c0 -50 -201 -867 -229 -933 -12 -27 -21 -51 -21 -53 0 -2
185 -3 412 -2 l412 3 44 82 43 83 -43 -20 c-39 -18 -66 -20 -285 -20 -134 0
-243 2 -243 4 0 32 206 839 220 863 l19 33 -164 0 -165 0 0 -40z"/>
<path d="M4810 4003 c-74 -26 -141 -77 -167 -127 -20 -38 -193 -740 -193 -781
0 -41 34 -93 67 -102 15 -5 197 -8 403 -8 371 0 376 0 426 23 60 27 107 72
128 122 27 65 179 704 179 757 1 38 -4 57 -18 73 -45 49 -50 50 -442 49 -202
0 -375 -3 -383 -6z m532 -120 c10 -9 18 -26 18 -39 0 -27 -145 -637 -162 -677
-6 -15 -22 -37 -36 -47 -22 -18 -41 -20 -206 -20 -194 0 -206 3 -206 49 0 15
37 177 82 361 72 294 85 338 109 363 l27 27 178 0 c151 0 180 -2 196 -17z"/>
<path d="M5830 4006 c0 -3 5 -17 10 -32 9 -22 -8 -104 -100 -477 -67 -271
-119 -465 -132 -485 l-20 -33 73 3 72 3 107 433 c59 237 109 434 111 436 2 2
78 -188 168 -423 91 -234 169 -432 174 -439 7 -9 49 -12 170 -10 l159 3 118
476 c65 261 125 489 134 507 9 17 16 33 16 37 0 3 -35 5 -78 5 l-78 0 4 -33
c3 -29 -169 -760 -187 -794 -4 -7 -58 119 -120 280 -63 160 -136 349 -163 420
l-50 127 -194 0 c-107 0 -194 -2 -194 -4z"/>
</g>
</svg>
